<?xml version="1.0" standalone="no"?>
<!DOCTYPE svg PUBLIC "-//W3C//DTD SVG 20010904//EN"
 "http://www.w3.org/TR/2001/REC-SVG-20010904/DTD/svg10.dtd">
<svg version="1.0" xmlns="http://www.w3.org/2000/svg"
 width="1600.000000pt" height="389.000000pt" viewBox="0 0 1600.000000 389.000000"
 preserveAspectRatio="xMidYMid meet">
<style>path{fill:none;stroke:#EEF2F5;stroke-width:1.3;vector-effect:non-scaling-stroke;stroke-linejoin:round;stroke-linecap:round}</style>
<metadata>
Created by potrace 1.16, written by Peter Selinger 2001-2019
</metadata>
<g transform="translate(0.000000,389.000000) scale(0.100000,-0.100000)"
fill="none">
<path d="M1579 3830 c-3 -44 -15 -87 -37 -134 -36 -76 -37 -80 -20 -70 7 4 8
3 4 -5 -4 -6 -11 -9 -16 -6 -4 3 -16 -8 -25 -23 -10 -15 -14 -24 -10 -20 4 4
14 0 22 -10 8 -9 12 -11 8 -4 -28 56 333 106 422 58 35 -19 29 -20 -22 -1 -22
8 -67 14 -100 13 l-60 -1 76 -7 c119 -11 141 -38 104 -124 -7 -15 -5 -17 6
-11 8 5 11 5 6 -1 -5 -5 -14 -9 -19 -9 -6 0 -13 -6 -16 -14 -3 -9 0 -11 9 -5
12 7 12 5 0 -9 -16 -20 -25 -22 -16 -4 4 6 -11 -7 -32 -29 -21 -23 -402 -349
-848 -724 -953 -803 -881 -739 -855 -757 15 -11 24 -11 41 -3 11 7 80 32 153
56 72 25 115 42 96 38 -19 -4 -82 -23 -140 -44 -58 -21 -114 -41 -125 -44 -11
-4 -8 0 8 9 43 25 259 94 343 111 58 11 164 14 443 14 279 0 370 3 381 13 12
10 12 9 1 -5 -12 -17 -45 -18 -390 -20 l-376 -3 374 -2 374 -3 52 49 c53 51
99 68 150 59 14 -3 22 -1 18 5 -12 20 -103 1 -151 -33 -29 -20 -40 -25 -28
-12 51 57 158 80 192 40 10 -12 14 -18 8 -15 -7 4 -14 -8 -18 -34 -4 -22 -21
-68 -39 -102 -42 -81 -42 -81 -27 -72 9 5 11 4 6 -4 -4 -6 -11 -9 -16 -6 -5 3
-14 -3 -19 -14 -14 -26 -14 -34 2 -25 7 4 9 3 4 -2 -5 -5 -14 -9 -19 -9 -6 0
-13 -6 -16 -14 -3 -8 0 -11 7 -7 17 11 13 0 -6 -15 -15 -12 -16 -12 -8 1 8 13
7 13 -8 1 -20 -16 -23 -36 -4 -25 7 4 9 3 4 -2 -5 -5 -14 -9 -19 -9 -6 0 -13
-6 -16 -14 -3 -8 0 -11 7 -7 17 11 13 0 -6 -15 -15 -12 -16 -12 -8 1 8 13 7
13 -8 1 -18 -14 -24 -36 -7 -26 16 10 11 -1 -7 -16 -15 -12 -16 -12 -8 1 8 13
7 13 -8 1 -20 -16 -23 -36 -4 -25 8 5 7 2 -2 -9 -8 -10 -16 -15 -19 -12 -7 6
-32 -15 -32 -27 0 -5 4 -6 10 -3 16 10 11 -1 -7 -16 -15 -12 -16 -12 -8 1 5 9
0 8 -13 -4 -26 -23 -30 -44 -4 -25 14 11 13 10 -2 -9 -21 -24 -32 -29 -20 -9
5 8 2 8 -9 -2 -20 -16 -23 -36 -5 -25 7 4 4 -2 -6 -14 -23 -26 -34 -29 -15 -4
11 14 10 13 -9 -2 -23 -20 -31 -42 -9 -30 8 5 7 2 -2 -9 -8 -10 -16 -15 -19
-12 -7 6 -32 -15 -32 -27 0 -5 5 -6 10 -3 16 10 11 -1 -7 -16 -15 -12 -16 -12
-8 1 5 9 0 8 -13 -4 -26 -23 -30 -44 -4 -25 14 11 13 10 -2 -9 -21 -24 -32
-29 -20 -9 5 8 2 8 -9 -2 -20 -16 -23 -36 -4 -25 6 4 3 -2 -7 -14 -23 -26 -34
-29 -15 -4 11 14 10 13 -9 -2 -23 -20 -31 -42 -9 -30 6 4 3 -2 -7 -14 -23 -26
-34 -29 -15 -4 7 9 1 6 -14 -7 -30 -27 -38 -52 -9 -30 14 11 13 10 -2 -9 -21
-24 -32 -29 -20 -10 5 9 2 9 -9 -1 -20 -16 -23 -36 -4 -25 6 4 3 -2 -7 -14
-23 -26 -34 -29 -15 -5 7 10 1 7 -14 -6 -30 -27 -38 -52 -9 -30 14 11 13 10
-2 -9 -21 -24 -31 -29 -20 -9 4 6 -2 3 -14 -7 -26 -23 -30 -44 -4 -25 14 11
13 10 -2 -9 -21 -24 -31 -29 -20 -9 4 6 -2 3 -14 -7 -26 -23 -30 -44 -4 -25
14 11 13 10 -2 -9 -21 -24 -31 -29 -20 -9 4 6 -2 3 -14 -7 -26 -23 -30 -44 -4
-25 14 11 13 10 -2 -9 -21 -24 -31 -29 -20 -9 4 6 -2 3 -14 -7 -26 -23 -30
-44 -4 -25 14 11 13 10 -2 -9 -21 -24 -31 -29 -20 -9 4 6 -2 3 -14 -7 -26 -23
-30 -44 -5 -25 15 11 14 10 -1 -9 -21 -24 -31 -29 -20 -9 4 6 -2 3 -14 -7 -26
-23 -30 -44 -4 -25 14 11 13 9 -2 -9 -11 -12 -21 -20 -24 -17 -7 6 -32 -15
-32 -27 0 -5 6 -6 12 -2 9 5 8 2 -1 -9 -8 -10 -16 -15 -19 -12 -7 6 -32 -15
-32 -27 0 -5 6 -6 13 -2 8 5 7 2 -2 -9 -8 -10 -16 -15 -19 -12 -7 6 -32 -15
-32 -27 0 -5 6 -6 13 -2 8 5 7 2 -2 -9 -8 -10 -16 -15 -19 -12 -7 6 -32 -15
-32 -27 0 -5 6 -6 13 -2 8 5 7 2 -2 -9 -8 -10 -16 -15 -19 -12 -7 6 -32 -15
-32 -27 0 -5 6 -6 13 -2 8 5 7 2 -2 -9 -8 -10 -16 -15 -19 -12 -7 6 -32 -15
-32 -27 0 -5 6 -6 12 -2 9 5 8 2 -1 -9 -8 -10 -16 -15 -19 -12 -7 6 -32 -15
-32 -27 0 -5 6 -6 12 -2 9 5 8 2 -1 -9 -8 -10 -16 -15 -19 -12 -7 6 -32 -15
-32 -27 0 -5 6 -6 12 -2 9 5 9 2 -1 -9 -16 -20 -25 -23 -15 -4 4 6 -2 3 -14
-7 -26 -23 -30 -44 -4 -25 14 11 13 10 -2 -9 -21 -24 -31 -29 -20 -9 4 6 -2 3
-14 -7 -26 -23 -30 -44 -4 -25 14 11 13 10 -2 -9 -21 -24 -31 -29 -20 -9 4 6
-2 3 -14 -7 -26 -23 -30 -44 -4 -25 14 11 13 10 -2 -9 -20 -23 -32 -30 -21
-12 17 28 -7 3 -53 -55 -51 -62 -63 -83 -42 -70 16 10 11 -1 -7 -16 -11 -10
-14 -10 -9 -2 19 33 -8 7 -51 -49 -48 -63 -65 -108 -38 -104 8 1 112 105 232
232 659 695 1447 1454 1577 1518 17 9 25 16 18 16 -17 0 -90 -50 -172 -119
-36 -30 -54 -42 -40 -27 29 32 176 146 200 154 8 3 24 12 35 21 19 15 19 15 5
-4 -11 -16 -11 -18 0 -8 8 7 68 165 135 350 l122 338 181 95 c99 52 184 99
189 104 4 4 -81 -38 -189 -94 -109 -56 -198 -99 -198 -96 0 3 51 31 113 62 61
31 170 88 240 126 163 89 258 103 327 47 23 -18 22 -18 -18 2 -66 33 -262 6
-262 -36 0 -3 19 5 43 17 74 39 195 33 243 -12 21 -19 32 -27 25 -18 -11 14
-9 16 9 11 13 -4 26 0 31 8 12 20 11 31 -3 23 -7 -4 -8 -3 -4 5 4 6 11 9 15 7
4 -3 23 11 42 30 19 20 68 56 109 80 41 24 71 44 66 44 -11 0 -88 -44 -136
-77 l-35 -24 35 30 c75 67 265 140 403 157 31 3 57 10 57 14 0 15 -117 20
-480 18 l-375 -3 395 -5 395 -6 -403 1 c-351 0 -402 -2 -402 -15 0 -13 -1 -13
-10 0 -8 12 -10 10 -10 -8 0 -15 4 -21 12 -16 7 4 8 3 4 -5 -4 -6 -11 -9 -15
-6 -5 2 -17 -5 -27 -16 -23 -26 -93 -61 -247 -124 -64 -26 -116 -50 -114 -52
10 -9 317 127 352 156 19 15 19 15 5 -2 -21 -28 -73 -51 -450 -207 -815 -337
-940 -380 -940 -328 0 9 3 9 9 -1 8 -12 18 -13 62 -3 56 13 663 251 656 258
-2 2 -116 -41 -253 -96 -378 -152 -461 -179 -447 -143 5 12 3 14 -7 8 -9 -5
-11 -4 -6 4 4 6 12 9 17 6 5 -4 12 1 15 9 3 8 183 184 400 392 217 207 394
379 394 382 0 4 -30 -23 -67 -58 -38 -36 -23 -19 32 38 107 109 107 110 99 87
-4 -8 -10 -15 -16 -15 -5 0 -6 -5 -2 -12 4 -6 3 -8 -3 -5 -6 4 -16 0 -22 -7
-8 -10 -9 -16 -1 -21 5 -3 10 -1 10 6 0 7 2 10 5 7 3 -3 2 -13 -1 -22 -4 -10
-10 -13 -13 -8 -3 6 -52 -105 -108 -246 -57 -143 -93 -246 -82 -232 20 24 20
24 9 2 -6 -13 -10 -26 -7 -28 3 -3 266 116 405 185 15 7 304 666 306 698 0 11
4 19 7 17 9 -5 50 42 43 49 -10 10 76 46 138 57 127 25 624 10 642 -19 3 -5
-11 -3 -32 5 -25 9 -85 13 -192 12 l-155 -2 170 -5 c172 -6 195 -10 195 -37 0
-9 5 -12 13 -8 7 4 9 3 4 -2 -5 -5 -12 -9 -15 -9 -4 0 -61 -41 -127 -90 -66
-49 -181 -133 -255 -188 -131 -96 -172 -129 -140 -112 12 7 78 55 148 108 6 5
12 7 12 4 0 -9 -149 -117 -175 -127 -45 -17 -28 -19 216 -20 l242 -1 60 48
c34 26 58 43 54 37 -3 -6 -30 -30 -60 -52 l-53 -42 -235 -3 -234 -2 235 -3
236 -2 159 126 c142 112 232 188 170 144 -20 -15 -20 -14 -1 8 20 23 32 30 21
12 -3 -5 -4 -10 -1 -10 8 0 526 410 526 417 0 2 -29 -19 -65 -47 -36 -28 -65
-49 -65 -47 0 11 129 107 144 107 9 0 16 5 16 10 0 7 -428 10 -1265 10 l-1265
0 -2 -52 -1 -53 -6 55 -6 55 -6 -65z m2351 -101 c-53 -45 -157 -124 -140 -106
20 21 164 136 170 136 3 0 -11 -13 -30 -30z m-190 -150 c-53 -45 -157 -124
-140 -106 20 21 164 136 170 136 3 0 -11 -13 -30 -30z m-570 -83 c0 -3 -75
-61 -150 -115 -64 -46 -16 -3 65 58 81 61 85 64 85 57z m330 -107 c-53 -45
-157 -124 -140 -106 20 21 164 136 170 136 3 0 -11 -13 -30 -30z m-1950 -263
c0 -3 -42 -39 -92 -82 -51 -42 -84 -68 -73 -56 39 41 165 146 165 138z m240
-79 c0 -1 -46 -47 -102 -102 l-103 -100 100 103 c93 95 105 107 105 99z m49
-211 c-23 -58 -44 -104 -46 -102 -2 2 15 51 38 110 23 58 44 104 46 102 2 -2
-15 -51 -38 -110z m-269 1 c0 -1 -46 -47 -102 -102 l-103 -100 100 103 c93 95
105 107 105 99z m-470 -91 c0 -3 -42 -39 -92 -82 -51 -42 -84 -68 -73 -56 39
41 165 146 165 138z m250 -119 c0 -1 -51 -52 -112 -112 l-113 -110 110 113
c102 104 115 117 115 109z m-830 -371 c0 -3 -42 -39 -92 -82 -51 -42 -84 -68
-73 -56 39 41 165 146 165 138z m980 -749 c0 -1 -33 -34 -72 -72 l-73 -70 70
73 c64 67 75 77 75 69z m-150 -140 c0 -1 -204 -205 -452 -452 l-453 -450 450
453 c418 420 455 456 455 449z m-910 -920 c0 -1 -51 -52 -112 -112 l-113 -110
110 113 c102 104 115 117 115 109z m-240 -250 c0 -1 -33 -34 -72 -72 l-73 -70
70 73 c64 67 75 77 75 69z"/>
<path d="M6698 3826 c-6 -66 -44 -164 -90 -228 -12 -18 -17 -28 -10 -24 10 6
16 -3 14 -24 0 -3 25 7 56 22 32 16 88 32 127 38 l70 9 -68 -4 c-44 -3 -88
-13 -123 -29 -30 -14 -54 -23 -54 -20 0 53 350 94 427 49 15 -9 19 -13 8 -9
-49 16 -94 23 -140 22 -42 0 -38 -2 27 -9 119 -12 140 -38 103 -123 -7 -15 -5
-17 6 -11 8 5 11 5 6 -1 -5 -5 -14 -9 -19 -9 -6 0 -13 -6 -16 -14 -3 -9 0 -11
9 -5 12 7 12 5 0 -9 -16 -20 -25 -22 -16 -4 4 6 -11 -7 -32 -30 -21 -22 -389
-337 -818 -699 -936 -788 -908 -765 -898 -775 5 -5 53 9 108 31 233 91 250 93
695 98 352 3 397 5 415 20 20 17 20 17 2 -5 -19 -21 -22 -22 -415 -25 -396 -4
-397 -4 -495 -31 -104 -29 -276 -92 -291 -107 -5 -5 36 9 90 30 232 91 250 93
694 98 l395 3 52 50 c43 41 61 68 27 42 -5 -5 -5 -3 1 3 28 31 110 42 141 19
17 -13 16 -13 -12 -3 -23 9 -41 9 -65 1 -34 -11 -34 -11 8 -6 79 10 91 -33 37
-139 -27 -53 -29 -62 -12 -52 7 4 8 3 4 -5 -4 -6 -11 -9 -16 -6 -4 3 -17 -11
-29 -31 -24 -41 -26 -48 -8 -38 7 4 9 3 4 -2 -5 -5 -14 -9 -19 -9 -6 0 -13 -6
-16 -14 -3 -9 0 -11 8 -6 9 6 11 4 6 -4 -5 -7 -11 -10 -14 -7 -7 7 -32 -13
-32 -26 0 -6 8 -4 18 3 15 11 15 11 4 -1 -7 -8 -18 -15 -24 -15 -6 0 -13 -6
-16 -14 -3 -9 0 -11 8 -6 9 6 11 4 6 -4 -5 -7 -11 -10 -14 -7 -7 7 -32 -13
-32 -26 0 -5 5 -6 10 -3 16 10 11 -1 -7 -16 -15 -12 -16 -12 -8 1 8 13 7 13
-8 1 -18 -14 -24 -36 -7 -26 16 10 11 -1 -7 -16 -15 -12 -16 -12 -8 1 8 13 7
13 -8 1 -20 -16 -23 -36 -4 -25 6 4 3 -2 -7 -14 -23 -26 -34 -29 -15 -5 11 15
10 14 -9 -1 -22 -19 -31 -43 -12 -31 16 10 11 -1 -7 -16 -15 -12 -16 -12 -8 1
5 9 0 8 -13 -4 -26 -23 -30 -44 -4 -25 14 11 13 10 -2 -9 -21 -24 -32 -29 -20
-9 5 8 2 8 -9 -2 -20 -16 -23 -36 -4 -25 6 4 3 -2 -7 -14 -23 -26 -34 -29 -15
-4 11 14 10 13 -9 -2 -23 -20 -31 -42 -9 -30 6 4 3 -2 -7 -14 -23 -26 -34 -29
-15 -4 11 14 10 13 -9 -2 -23 -20 -31 -42 -9 -30 6 4 3 -2 -7 -14 -23 -26 -34
-29 -15 -4 11 14 10 13 -9 -2 -23 -20 -31 -42 -9 -30 6 4 3 -2 -7 -14 -23 -26
-34 -29 -15 -4 11 14 10 13 -9 -2 -23 -20 -31 -42 -9 -30 6 4 3 -2 -7 -14 -23
-26 -34 -29 -15 -4 11 14 10 13 -9 -2 -23 -20 -31 -42 -9 -30 6 4 3 -2 -7 -14
-23 -26 -34 -29 -15 -4 11 14 10 13 -9 -2 -23 -20 -31 -42 -9 -30 6 4 3 -2 -7
-14 -23 -26 -34 -29 -15 -5 11 15 10 14 -9 -1 -23 -20 -31 -42 -9 -30 6 4 3
-2 -7 -14 -23 -26 -34 -29 -15 -4 11 14 10 13 -9 -2 -23 -20 -31 -42 -9 -30 6
4 3 -2 -7 -14 -23 -26 -34 -29 -15 -5 11 15 10 14 -9 -1 -23 -20 -31 -42 -9
-30 6 4 3 -2 -7 -14 -23 -26 -34 -29 -15 -4 11 14 10 13 -9 -2 -23 -20 -31
-42 -9 -30 6 4 3 -2 -7 -14 -23 -26 -34 -29 -15 -4 11 14 10 13 -9 -2 -23 -20
-31 -42 -9 -30 6 4 3 -2 -7 -14 -23 -26 -34 -29 -15 -4 11 14 10 13 -9 -2 -23
-20 -31 -42 -9 -30 6 4 3 -2 -7 -14 -23 -26 -34 -29 -15 -4 11 14 10 13 -9 -2
-23 -20 -31 -42 -9 -30 6 4 3 -2 -7 -14 -23 -26 -34 -29 -15 -4 11 14 10 13
-9 -2 -23 -20 -31 -42 -9 -30 6 4 3 -2 -7 -14 -23 -26 -34 -29 -15 -4 7 9 1 6
-14 -7 -30 -27 -38 -52 -9 -30 14 11 13 10 -2 -9 -21 -24 -32 -29 -20 -9 5 8
2 8 -9 -2 -20 -16 -23 -36 -4 -25 6 4 3 -2 -7 -14 -23 -26 -34 -29 -15 -4 11
14 10 13 -9 -2 -23 -20 -31 -42 -9 -30 6 4 3 -2 -7 -14 -23 -26 -34 -29 -15
-5 7 10 1 7 -14 -6 -30 -27 -38 -52 -9 -30 14 11 13 10 -2 -9 -21 -24 -32 -29
-20 -9 5 8 2 8 -9 -2 -20 -16 -23 -36 -4 -25 6 4 3 -2 -7 -14 -23 -26 -34 -29
-15 -4 11 14 10 13 -9 -2 -23 -20 -31 -42 -9 -30 6 4 3 -2 -7 -14 -23 -26 -34
-29 -15 -5 11 15 10 14 -9 -1 -23 -20 -31 -42 -9 -30 6 4 3 -2 -7 -14 -23 -26
-34 -29 -15 -4 11 14 10 13 -9 -2 -23 -20 -31 -42 -9 -30 6 4 3 -2 -7 -14 -23
-26 -34 -29 -15 -4 11 14 10 13 -9 -2 -23 -20 -31 -42 -9 -30 8 5 7 2 -2 -9
-8 -10 -16 -15 -19 -12 -7 6 -32 -15 -32 -27 0 -5 6 -6 13 -2 8 5 7 2 -2 -9
-8 -10 -16 -15 -19 -12 -7 6 -32 -15 -32 -27 0 -5 5 -6 10 -3 16 10 11 -1 -7
-16 -15 -12 -16 -12 -8 1 5 9 0 8 -13 -4 -26 -23 -30 -44 -4 -25 14 11 13 10
-2 -9 -21 -24 -31 -29 -20 -9 4 6 -2 3 -14 -7 -26 -23 -30 -44 -4 -25 14 11
13 10 -2 -9 -20 -23 -32 -30 -21 -12 3 5 4 10 2 10 -6 0 -129 -160 -125 -161
34 -14 54 2 199 155 489 518 1169 1194 1419 1412 136 119 170 150 145 133 -18
-13 -19 -13 -6 3 7 10 16 16 20 13 4 -2 29 7 56 20 27 14 42 25 34 25 -8 0
-29 -9 -46 -20 -18 -11 -33 -17 -33 -15 0 11 66 45 86 45 19 0 36 41 146 348
l125 347 194 103 c265 139 277 145 336 150 69 6 95 -2 140 -41 20 -17 34 -26
29 -19 -5 8 -1 12 12 12 11 0 23 7 26 16 9 23 8 26 -6 18 -9 -5 -9 -2 1 9 16
20 25 23 15 5 -4 -7 9 3 29 21 39 37 49 53 20 30 -15 -11 -14 -10 1 9 20 23
32 30 21 12 -10 -15 1 -12 38 13 68 44 71 48 22 22 -27 -14 -43 -19 -35 -11
53 53 268 130 362 131 37 0 60 3 50 7 -14 5 -13 7 6 7 36 1 25 18 -15 25 -21
3 -218 5 -438 4 l-400 -3 415 -5 415 -5 -412 -3 c-322 -1 -413 -5 -413 -14 0
-9 -4 -8 -10 2 -8 12 -10 10 -10 -8 0 -15 4 -21 12 -16 7 4 8 3 4 -5 -4 -6
-11 -9 -16 -6 -4 3 -14 -3 -21 -11 -25 -30 -83 -60 -262 -134 -97 -40 -176
-75 -174 -77 7 -6 351 140 392 167 59 38 65 42 65 37 0 -21 -163 -98 -495
-235 -686 -282 -846 -343 -898 -341 l-32 2 30 4 c59 8 593 208 582 219 -2 2
-71 -23 -153 -57 -204 -82 -389 -149 -414 -149 -43 0 16 63 403 432 213 203
387 373 387 376 0 4 -28 -20 -62 -53 -35 -33 -20 -16 32 38 84 86 123 122 91
84 -6 -8 -7 -18 -3 -22 4 -5 2 -5 -4 -2 -15 9 -39 -19 -24 -28 5 -3 10 -1 10
6 0 7 2 10 5 7 3 -3 2 -13 -1 -22 -4 -11 -9 -14 -13 -7 -4 6 -53 -105 -109
-246 -55 -142 -100 -259 -98 -261 2 -2 21 40 42 92 20 53 39 94 41 92 2 -2
-12 -43 -31 -92 -20 -48 -34 -89 -32 -91 2 -2 88 37 192 87 104 49 196 90 205
90 9 0 24 22 39 58 13 31 79 185 147 342 68 157 121 291 118 298 -3 8 0 10 7
6 8 -5 9 -2 5 10 -4 9 -3 15 2 12 10 -6 51 35 48 49 -11 62 691 99 769 40 16
-12 13 -12 -21 0 -31 11 -101 14 -310 12 l-270 -1 285 -6 c285 -5 310 -8 310
-36 0 -9 5 -12 13 -8 7 4 9 3 4 -2 -5 -5 -12 -9 -16 -9 -4 0 -25 -14 -46 -31
-22 -17 -137 -102 -255 -189 -118 -86 -219 -162 -225 -168 -12 -13 20 8 80 51
25 18 45 31 45 29 0 -9 -124 -97 -136 -97 -7 0 -16 -4 -19 -10 -4 -6 85 -9
244 -7 138 1 247 -1 243 -5 -4 -4 -113 -9 -242 -11 l-235 -2 236 -3 236 -2
229 181 c200 158 309 249 239 199 -20 -15 -20 -14 -1 8 20 23 32 30 21 12 -15
-24 350 254 415 316 12 12 -166 14 -1258 14 l-1272 0 0 -47 c0 -27 -4 -54 -8
-61 -5 -7 -6 15 -4 48 2 33 2 60 0 60 -3 0 -8 -29 -10 -64z m2455 -17 c-43
-34 -87 -69 -98 -78 -18 -14 -19 -14 -5 1 23 25 164 137 173 138 5 0 -27 -28
-70 -61z m-153 -120 c-53 -45 -157 -124 -140 -106 20 21 164 136 170 136 3 0
-11 -13 -30 -30z m-621 -132 c-80 -60 -124 -91 -114 -80 17 20 140 112 149
112 5 1 -11 -14 -35 -32z m381 -58 c-53 -45 -157 -124 -140 -106 20 21 164
136 170 136 3 0 -11 -13 -30 -30z m-510 -33 c0 -3 -109 -86 -190 -145 -73 -52
-11 1 85 73 101 76 105 79 105 72z m350 -90 c0 -2 -33 -30 -72 -62 -121 -96
-164 -129 -148 -112 29 32 220 183 220 174z m-1690 -329 c0 -1 -48 -50 -107
-107 l-108 -105 105 108 c97 99 110 112 110 104z m-500 -141 c0 -3 -42 -39
-92 -82 -51 -42 -84 -68 -73 -56 39 41 165 146 165 138z m280 -69 c0 -1 -48
-50 -107 -107 l-108 -105 105 108 c97 99 110 112 110 104z m1200 -107 c42 -23
32 -27 -12 -4 -45 23 -141 15 -204 -17 -27 -14 -138 -72 -246 -128 -109 -56
-198 -100 -198 -97 0 3 64 38 143 77 78 39 178 92 221 116 136 77 223 93 296
53z m-1540 -227 c-63 -65 -116 -120 -117 -122 -2 -2 -3 -1 -3 4 0 9 220 235
229 235 3 0 -47 -53 -109 -117z m-520 -87 c0 -3 -42 -39 -92 -82 -51 -42 -84
-68 -73 -56 39 41 165 146 165 138z m770 -929 c0 -1 -37 -38 -82 -82 l-83 -80
80 83 c74 76 85 87 85 79z m-555 -547 c-214 -214 -392 -390 -395 -390 -3 0
171 176 385 390 214 215 392 390 395 390 3 0 -171 -175 -385 -390z m-435 -443
c0 -1 -53 -54 -117 -117 l-118 -115 115 118 c107 109 120 122 120 114z m-250
-260 c0 -1 -37 -38 -82 -82 l-83 -80 80 83 c74 76 85 87 85 79z"/>
<path d="M11818 3826 c-6 -66 -44 -164 -90 -228 -12 -18 -17 -28 -10 -24 10 6
16 -3 14 -24 0 -3 25 7 56 22 32 16 88 32 127 38 l70 9 -68 -4 c-44 -3 -88
-13 -123 -29 -30 -14 -54 -23 -54 -20 0 53 350 94 427 49 15 -9 19 -13 8 -9
-49 16 -94 23 -140 22 -42 0 -38 -2 27 -9 119 -12 140 -38 103 -123 -7 -15 -5
-17 6 -11 8 5 11 5 6 -1 -5 -5 -14 -9 -19 -9 -6 0 -13 -6 -16 -14 -3 -9 0 -11
9 -5 12 7 12 5 0 -9 -16 -20 -25 -22 -16 -4 4 6 -11 -7 -32 -29 -21 -23 -389
-338 -818 -700 -937 -789 -908 -765 -898 -775 5 -5 53 9 108 31 233 91 250 93
695 98 352 3 397 5 415 20 20 17 20 17 2 -5 -19 -21 -22 -22 -415 -25 -396 -4
-397 -4 -495 -31 -104 -29 -276 -92 -291 -107 -5 -5 36 9 90 30 232 91 250 93
694 98 l395 3 52 50 c44 42 64 73 23 37 -12 -11 -12 -10 -1 4 25 34 114 48
147 23 17 -13 16 -13 -12 -3 -23 9 -41 9 -65 1 -34 -11 -34 -11 8 -6 90 12 92
-10 16 -186 -5 -10 -2 -12 7 -6 9 5 11 4 6 -4 -4 -6 -11 -9 -16 -6 -4 3 -17
-11 -29 -31 -24 -41 -26 -48 -8 -38 7 4 9 3 4 -2 -5 -5 -14 -9 -19 -9 -6 0
-13 -6 -16 -14 -3 -9 0 -11 8 -6 9 6 11 4 6 -4 -5 -7 -11 -10 -14 -7 -7 7 -32
-13 -32 -26 0 -6 8 -4 18 3 15 11 15 11 4 -1 -7 -8 -18 -15 -24 -15 -6 0 -13
-6 -16 -14 -3 -9 0 -11 8 -6 9 6 11 4 6 -4 -5 -7 -11 -10 -14 -7 -7 7 -32 -13
-32 -26 0 -5 5 -6 10 -3 16 10 11 -1 -7 -16 -15 -12 -16 -12 -8 1 8 13 7 13
-8 1 -18 -14 -24 -36 -7 -26 16 10 11 -1 -7 -16 -15 -12 -16 -12 -8 1 8 13 7
13 -8 1 -20 -16 -23 -36 -4 -25 6 4 3 -2 -7 -14 -23 -26 -34 -29 -15 -5 11 15
10 14 -9 -1 -23 -20 -31 -42 -9 -30 8 5 7 2 -2 -9 -8 -10 -16 -15 -19 -12 -7
6 -32 -15 -32 -27 0 -5 5 -6 10 -3 16 10 11 -1 -7 -16 -15 -12 -16 -12 -8 1 8
13 7 13 -8 1 -20 -16 -23 -36 -4 -25 6 4 3 -2 -7 -14 -23 -26 -34 -29 -15 -4
11 14 10 13 -9 -2 -23 -20 -31 -42 -9 -30 6 4 3 -2 -7 -14 -23 -26 -34 -29
-15 -4 11 14 10 13 -9 -2 -23 -20 -31 -42 -9 -30 6 4 3 -2 -7 -14 -23 -26 -34
-29 -15 -4 11 14 10 13 -9 -2 -23 -20 -31 -42 -9 -30 6 4 3 -2 -7 -14 -23 -26
-34 -29 -15 -4 11 14 10 13 -9 -2 -23 -20 -31 -42 -9 -30 6 4 3 -2 -7 -14 -23
-26 -34 -29 -15 -4 11 14 10 13 -9 -2 -23 -20 -31 -42 -9 -30 6 4 3 -2 -7 -14
-23 -26 -34 -29 -15 -4 11 14 10 13 -9 -2 -23 -20 -31 -42 -9 -30 6 4 3 -2 -7
-14 -23 -26 -34 -29 -15 -5 11 15 10 14 -9 -1 -23 -20 -31 -42 -9 -30 6 4 3
-2 -7 -14 -23 -26 -34 -29 -15 -4 11 14 10 13 -9 -2 -23 -20 -31 -42 -9 -30 6
4 3 -2 -7 -14 -23 -26 -34 -29 -15 -5 11 15 10 14 -9 -1 -23 -20 -31 -42 -9
-30 6 4 3 -2 -7 -14 -23 -26 -34 -29 -15 -4 11 14 10 13 -9 -2 -23 -20 -31
-42 -9 -30 6 4 3 -2 -7 -14 -23 -26 -34 -29 -15 -4 11 14 10 13 -9 -2 -23 -20
-31 -42 -9 -30 6 4 3 -2 -7 -14 -23 -26 -34 -29 -15 -4 11 14 10 13 -9 -2 -23
-20 -31 -42 -9 -30 6 4 3 -2 -7 -14 -23 -26 -34 -29 -15 -4 11 14 10 13 -9 -2
-23 -20 -31 -42 -9 -30 6 4 3 -2 -7 -14 -23 -26 -34 -29 -15 -4 11 14 10 13
-9 -2 -23 -20 -31 -42 -9 -30 6 4 3 -2 -7 -14 -23 -26 -34 -29 -15 -4 7 9 1 6
-14 -7 -30 -27 -38 -52 -9 -30 14 11 13 10 -2 -9 -21 -24 -32 -29 -20 -9 5 8
2 8 -9 -2 -20 -16 -23 -36 -4 -25 6 4 3 -2 -7 -14 -23 -26 -34 -29 -15 -4 11
14 10 13 -9 -2 -23 -20 -31 -42 -9 -30 6 4 3 -2 -7 -14 -23 -26 -34 -29 -15
-5 7 10 1 7 -14 -6 -30 -27 -38 -52 -9 -30 14 11 13 10 -2 -9 -21 -24 -32 -29
-20 -9 5 8 2 8 -9 -2 -20 -16 -23 -36 -4 -25 6 4 3 -2 -7 -14 -23 -26 -34 -29
-15 -4 11 14 10 13 -9 -2 -23 -20 -31 -42 -9 -30 6 4 3 -2 -7 -14 -23 -26 -34
-29 -15 -5 11 15 10 14 -9 -1 -23 -20 -31 -42 -9 -30 6 4 3 -2 -7 -14 -23 -26
-34 -29 -15 -4 11 14 10 13 -9 -2 -23 -20 -31 -42 -9 -30 6 4 3 -2 -7 -14 -23
-26 -34 -29 -15 -4 11 14 10 13 -9 -2 -23 -20 -31 -42 -9 -30 6 4 3 -2 -7 -14
-23 -26 -34 -29 -15 -4 11 14 10 13 -9 -2 -23 -20 -31 -42 -9 -30 8 5 7 2 -2
-9 -8 -10 -16 -15 -19 -12 -7 6 -32 -15 -32 -27 0 -5 5 -6 10 -3 16 10 11 -1
-7 -16 -15 -12 -16 -12 -8 1 5 9 0 8 -13 -4 -26 -23 -30 -44 -4 -25 14 11 13
10 -2 -9 -21 -24 -31 -29 -20 -9 4 6 -2 3 -14 -7 -26 -23 -30 -44 -4 -25 14
11 13 10 -2 -9 -20 -23 -32 -30 -21 -12 3 5 4 10 2 10 -6 0 -129 -160 -125
-161 35 -14 56 3 276 235 510 537 1088 1111 1342 1332 136 119 170 150 145
133 -18 -13 -19 -13 -6 3 7 10 16 16 20 13 4 -2 29 7 56 20 27 14 42 25 34 25
-8 0 -29 -9 -46 -20 -18 -11 -33 -17 -33 -15 0 11 66 45 86 45 19 0 36 41 146
348 l124 347 195 103 c268 141 276 145 349 153 l65 7 -66 -2 c-48 -1 -79 -9
-115 -27 -27 -14 -138 -72 -246 -128 -109 -56 -198 -100 -198 -97 0 4 85 49
444 235 70 36 159 41 212 11 37 -20 36 -21 -11 -5 l-20 7 20 -13 c11 -6 33
-23 49 -38 16 -14 26 -20 22 -13 -5 8 0 12 12 12 11 0 23 7 26 16 9 23 8 26
-6 18 -9 -5 -9 -2 1 9 16 20 25 23 15 5 -4 -7 12 5 35 27 44 42 56 61 19 29
l-23 -19 19 22 c10 13 22 20 26 18 8 -5 100 43 100 52 0 2 -21 -7 -47 -22 -27
-14 -41 -19 -33 -11 53 53 268 130 362 131 37 0 60 3 50 7 -14 5 -13 7 6 7 36
1 25 18 -15 25 -21 3 -218 5 -438 4 l-400 -3 415 -5 415 -5 -412 -3 c-322 -1
-413 -5 -413 -14 0 -9 -4 -8 -10 2 -8 12 -10 10 -10 -8 0 -15 4 -21 12 -16 7
4 8 3 4 -5 -4 -6 -11 -9 -16 -6 -4 3 -14 -3 -21 -11 -25 -30 -83 -60 -262
-134 -97 -40 -176 -75 -174 -77 7 -6 351 140 392 167 59 38 65 42 65 37 0 -21
-163 -98 -495 -235 -686 -282 -846 -343 -898 -341 l-32 2 30 4 c59 8 593 208
582 219 -2 2 -71 -23 -153 -57 -204 -82 -389 -149 -414 -149 -43 0 16 63 403
432 213 203 387 373 387 376 0 4 -28 -20 -62 -53 -35 -33 -20 -16 32 38 84 86
123 122 91 84 -6 -8 -7 -18 -3 -22 4 -5 2 -5 -4 -2 -15 9 -39 -19 -24 -28 5
-3 10 -1 10 6 0 7 2 10 5 7 3 -3 2 -13 -1 -22 -4 -11 -9 -14 -13 -7 -4 6 -53
-105 -109 -246 -55 -142 -100 -259 -98 -261 2 -2 21 40 42 92 20 53 39 94 41
92 2 -2 -12 -43 -31 -92 -20 -48 -34 -89 -32 -91 2 -2 88 37 192 87 104 49
196 90 204 90 19 0 315 684 304 701 -5 8 -3 9 6 4 10 -6 12 -4 7 9 -4 9 -3 15
2 12 10 -6 51 35 48 49 -11 62 691 99 769 40 16 -12 13 -12 -21 0 -31 11 -101
14 -310 12 l-270 -1 285 -6 c285 -5 310 -8 310 -36 0 -9 5 -12 12 -8 7 5 8 3
4 -5 -5 -7 -11 -10 -14 -7 -3 4 -15 -2 -26 -13 -12 -10 -127 -96 -256 -191
-129 -95 -239 -177 -245 -183 -12 -13 20 8 80 51 25 18 45 31 45 29 0 -9 -124
-97 -136 -97 -7 0 -16 -4 -19 -10 -4 -6 85 -9 244 -7 138 1 247 -1 243 -5 -4
-4 -113 -9 -242 -11 l-235 -2 237 -3 237 -2 28 26 c15 15 19 20 8 13 -20 -14
-20 -13 -1 9 20 23 32 30 21 12 -3 -5 -4 -10 -1 -10 8 0 426 331 426 337 0 3
-8 -1 -17 -8 -15 -11 -14 -10 1 9 20 23 32 30 21 12 -15 -24 350 254 415 316
12 12 -166 14 -1258 14 l-1272 0 0 -47 c0 -27 -4 -54 -8 -61 -5 -7 -6 15 -4
48 2 33 2 60 0 60 -3 0 -8 -29 -10 -64z m2455 -17 c-43 -34 -87 -69 -98 -78
-18 -14 -19 -14 -5 1 23 25 164 137 173 138 5 0 -27 -28 -70 -61z m-153 -120
c-53 -45 -157 -124 -140 -106 20 21 164 136 170 136 3 0 -11 -13 -30 -30z
m-621 -132 c-80 -60 -124 -91 -114 -80 17 20 140 112 149 112 5 1 -11 -14 -35
-32z m381 -58 c-53 -45 -157 -124 -140 -106 20 21 164 136 170 136 3 0 -11
-13 -30 -30z m-510 -33 c0 -3 -109 -86 -190 -145 -73 -52 -11 1 85 73 101 76
105 79 105 72z m320 -117 c-53 -45 -157 -124 -140 -106 20 21 164 136 170 136
3 0 -11 -13 -30 -30z m-1660 -302 c0 -1 -48 -50 -107 -107 l-108 -105 105 108
c97 99 110 112 110 104z m-220 -210 c0 -1 -48 -50 -107 -107 l-108 -105 105
108 c97 99 110 112 110 104z m-340 -334 c-63 -65 -116 -120 -117 -122 -2 -2
-3 -1 -3 4 0 9 220 235 229 235 3 0 -47 -53 -109 -117z m250 -1016 c0 -1 -37
-38 -82 -82 l-83 -80 80 83 c74 76 85 87 85 79z m-170 -160 c0 -1 -181 -182
-402 -402 l-403 -400 400 403 c372 374 405 406 405 399z m-820 -830 c0 -1 -53
-54 -117 -117 l-118 -115 115 118 c107 109 120 122 120 114z m-250 -260 c0 -1
-37 -38 -82 -82 l-83 -80 80 83 c74 76 85 87 85 79z"/>
<path d="M2758 3663 c28 -2 76 -2 105 0 28 2 5 3 -53 3 -58 0 -81 -1 -52 -3z"/>
<path d="M2592 3639 c-29 -12 -52 -23 -49 -25 2 -2 21 3 42 12 21 8 57 19 79
24 35 7 36 8 11 8 -16 1 -54 -8 -83 -19z"/>
<path d="M1617 3609 c-37 -9 -97 -36 -97 -44 0 -2 20 5 44 15 24 11 74 24 112
29 56 7 60 9 24 9 -25 0 -62 -4 -83 -9z"/>
<path d="M3190 2921 c-30 -9 -64 -23 -75 -30 -20 -12 -20 -12 0 -5 11 4 54 17
95 30 41 13 66 23 55 23 -11 0 -45 -8 -75 -18z"/>
<path d="M3465 2916 c134 -19 315 -100 315 -141 0 -3 -28 15 -61 40 -147 108
-382 120 -567 29 -37 -19 -58 -26 -47 -18 46 37 175 82 240 85 21 1 24 3 10 6
-49 13 -219 -48 -275 -99 -14 -13 -19 -19 -10 -13 8 5 4 -3 -9 -18 -25 -28
-43 -38 -21 -12 24 29 -6 15 -38 -18 -34 -35 -44 -58 -14 -36 14 11 13 10 -2
-9 -21 -24 -32 -29 -20 -9 5 8 2 8 -9 -2 -19 -15 -23 -36 -5 -25 7 4 8 3 4 -5
-4 -6 -11 -9 -16 -6 -24 15 -101 -194 -99 -266 1 -38 5 -27 14 44 4 27 8 47
11 44 2 -2 0 -37 -6 -78 -13 -93 1 -202 35 -276 13 -29 22 -53 19 -53 -11 0
-54 109 -63 160 l-10 55 4 -54 c5 -57 58 -186 74 -177 5 3 15 -2 22 -12 13
-15 12 -16 -3 -3 -10 7 -18 9 -18 3 0 -34 199 -171 231 -160 6 2 -11 11 -38
21 -26 9 -61 29 -78 43 l-30 26 33 -22 c182 -121 490 -87 671 74 52 47 53 47
16 7 -48 -51 -115 -95 -193 -127 -31 -13 -50 -24 -41 -24 37 0 164 76 230 137
62 58 97 107 52 72 -16 -13 -17 -12 -4 3 7 10 17 15 22 13 4 -3 22 21 39 54
32 64 40 93 14 51 -10 -16 -13 -18 -8 -5 48 132 57 315 20 415 -9 25 -12 40
-7 35 37 -37 52 -240 27 -350 -17 -71 -13 -86 6 -24 35 118 1 414 -49 414 -6
0 -15 4 -20 9 -5 5 -2 6 6 1 9 -5 12 -3 9 6 -3 8 -10 14 -16 14 -6 0 -17 7
-24 15 -11 12 -11 12 5 1 30 -23 19 4 -15 36 -94 88 -188 128 -325 137 l-78 5
90 -13z m-27 -105 c22 -11 44 -25 47 -31 4 -6 -8 -2 -27 10 -18 11 -37 20 -43
20 -5 -1 7 -10 27 -20 20 -11 40 -24 43 -30 3 -5 11 -10 16 -10 6 0 7 5 4 10
-11 18 1 10 26 -17 13 -14 18 -23 12 -19 -19 11 -16 -9 4 -25 11 -10 14 -10 9
-1 -11 18 -1 15 15 -5 10 -11 10 -14 2 -9 -18 10 -16 -5 3 -32 9 -13 26 -49
39 -80 13 -31 25 -50 25 -42 2 29 29 -59 40 -135 12 -78 6 -179 -11 -206 -6
-9 -7 -4 -2 16 12 45 8 182 -6 248 -19 89 -22 63 -4 -43 19 -112 8 -209 -32
-299 -23 -52 -24 -54 -4 -31 l21 25 -14 -25 c-9 -14 -19 -24 -24 -23 -5 1 -20
-9 -34 -22 -78 -75 -258 -76 -319 -2 -7 10 -18 17 -23 17 -6 0 -5 -7 2 -15 22
-26 4 -16 -21 12 -13 15 -16 21 -6 14 25 -19 21 2 -5 25 -12 10 -18 13 -14 7
10 -19 1 -16 -15 4 -12 14 -12 16 0 9 16 -10 15 -9 -21 61 -25 47 -60 157 -71
223 l-4 25 -2 -25 c0 -14 6 -49 14 -79 8 -30 10 -50 5 -45 -28 29 -48 238 -30
309 7 28 8 29 9 5 2 -17 7 -8 17 28 8 30 11 59 7 64 -4 7 -1 8 7 3 10 -6 12
-4 7 8 -4 10 -2 16 5 14 6 -1 13 4 16 12 3 9 0 11 -9 6 -8 -5 -11 -4 -6 1 5 5
12 9 15 9 13 0 32 16 32 27 0 7 -6 6 -15 -2 -24 -20 -18 -5 7 16 12 10 18 13
14 7 -11 -19 9 -16 25 4 12 14 12 16 0 8 -9 -5 -12 -4 -7 3 4 6 14 8 23 5 11
-4 14 -3 9 5 -4 7 -6 12 -4 12 2 0 21 7 43 15 51 19 130 13 183 -14z m131
-798 c-57 -68 -272 -71 -313 -4 -4 6 8 2 26 -8 80 -48 190 -46 260 4 40 28 44
30 27 8z"/>
<path d="M3263 2819 c-18 -5 -33 -12 -33 -15 0 -3 9 -2 21 1 11 4 42 10 67 15
41 7 43 8 12 8 -19 0 -50 -4 -67 -9z"/>
<path d="M3376 2548 c-3 -18 -10 -85 -16 -148 -6 -63 -13 -136 -16 -162 -5
-39 -3 -48 9 -48 18 0 21 17 37 200 6 63 12 132 15 153 7 49 -21 53 -29 5z"/>
<path d="M3417 2548 c-3 -13 -8 -66 -11 -118 l-5 -95 13 115 c13 112 14 145 3
98z"/>
<path d="M3063 2485 c0 -38 2 -53 4 -32 2 20 2 52 0 70 -2 17 -4 1 -4 -38z"/>
<path d="M3345 2455 c-4 -53 -5 -99 -2 -101 2 -3 8 38 12 91 4 53 5 99 2 101
-2 3 -8 -38 -12 -91z"/>
<path d="M3392 2290 c-1 -25 -5 -56 -7 -70 l-6 -25 11 25 c6 13 9 45 7 70 l-3
45 -2 -45z"/>
<path d="M8275 2907 c-33 -13 -69 -29 -80 -36 l-20 -13 20 8 c114 41 167 63
155 63 -8 0 -42 -10 -75 -22z"/>
<path d="M13395 2907 c-33 -13 -69 -29 -80 -36 l-20 -13 20 8 c114 41 167 63
155 63 -8 0 -42 -10 -75 -22z"/>
<path d="M5547 2892 c-56 -20 -84 -40 -153 -105 -75 -70 -107 -112 -71 -91 6
4 3 -2 -7 -14 -23 -26 -34 -29 -15 -4 11 14 10 13 -9 -2 -23 -20 -31 -42 -9
-30 7 5 6 1 -2 -10 -14 -17 -15 -17 -28 0 -12 17 -13 17 -13 -2 0 -10 -5 -26
-11 -34 -9 -12 -10 -11 -4 5 3 11 10 58 15 105 5 47 12 102 15 123 l5 37 -104
0 c-58 0 -107 -4 -110 -9 -3 -5 -26 -208 -51 -452 -24 -244 -47 -461 -50 -481
l-5 -38 110 0 c60 0 110 3 110 8 0 47 53 509 60 521 6 11 7 1 4 -29 -3 -39 -2
-36 10 17 8 34 19 71 26 82 6 12 8 27 4 33 -4 7 -3 8 4 4 6 -3 16 2 21 13 14
26 14 34 -1 25 -8 -4 -10 -3 -5 2 5 5 14 9 20 9 5 0 12 6 15 14 3 9 0 11 -9 6
-8 -5 -5 1 5 13 23 26 34 29 15 5 -7 -10 12 7 42 38 31 31 73 66 95 77 21 12
35 21 31 22 -17 1 -71 -34 -116 -73 l-46 -41 35 38 c37 40 124 96 150 96 12 0
12 -2 2 -9 -11 -7 -11 -9 2 -14 33 -13 19 -54 -28 -81 -60 -35 -106 -75 -106
-91 0 -23 35 -9 158 61 64 37 143 80 174 96 61 30 63 34 71 121 l5 47 -85 0
c-126 0 -211 -33 -306 -117 l-72 -65 72 70 c90 86 152 113 293 122 l95 6 -90
1 c-73 0 -103 -4 -158 -25z m12 -205 c-18 -16 -149 -96 -149 -92 0 7 133 94
144 95 5 0 7 -2 5 -3z"/>
<path d="M8341 2904 c-78 -21 -161 -68 -231 -131 -54 -49 -86 -96 -42 -62 14
11 13 10 -2 -9 -21 -24 -31 -29 -21 -9 4 6 -3 1 -14 -12 -23 -26 -28 -46 -8
-35 7 4 9 3 4 -2 -5 -5 -14 -9 -20 -9 -17 0 -68 -140 -72 -199 l-4 -51 8 47
c11 54 41 151 47 146 2 -2 -6 -33 -18 -68 -22 -71 -30 -223 -15 -295 5 -22 6
-37 3 -34 -4 3 -10 26 -15 50 -7 35 -9 38 -9 14 -1 -39 40 -150 55 -150 6 0
15 -4 20 -9 5 -5 2 -6 -6 -1 -9 5 -12 3 -9 -6 3 -8 10 -14 16 -14 5 0 14 -4
19 -9 5 -5 3 -6 -4 -2 -29 16 -10 -14 35 -56 198 -186 530 -175 747 24 58 53
93 102 48 67 -16 -13 -17 -12 -5 3 8 10 19 16 24 15 6 -1 13 4 16 12 3 9 0 11
-8 6 -9 -5 -11 -4 -6 4 4 6 12 9 17 6 14 -9 66 110 85 193 27 123 -3 364 -44
355 -6 -2 -9 3 -6 10 3 8 -5 25 -16 38 -12 13 -18 17 -14 9 5 -10 0 -9 -14 4
-25 21 -31 36 -7 16 37 -31 11 12 -27 45 -59 50 -93 66 -43 21 l40 -37 -41 31
c-153 116 -438 113 -617 -7 -32 -21 -44 -27 -32 -14 31 36 156 91 236 106 45
8 60 13 39 13 -19 1 -59 -6 -89 -14z m181 -92 c24 -11 59 -34 78 -52 33 -30
32 -29 -14 4 -108 79 -236 83 -321 11 l-30 -26 41 26 c100 63 224 53 308 -25
24 -22 45 -37 48 -35 3 3 11 -2 19 -12 12 -14 12 -15 0 -9 -9 6 -12 4 -9 -5 3
-8 10 -14 16 -14 5 0 14 -4 19 -9 5 -5 3 -6 -4 -2 -18 10 -16 1 9 -47 12 -23
32 -76 44 -117 13 -41 23 -68 23 -60 1 8 -3 30 -8 48 -6 18 -6 30 -2 27 8 -5
25 -90 34 -170 3 -22 2 -62 -3 -90 l-7 -50 -3 45 c-2 44 -3 44 -11 -17 -6 -52
-18 -86 -57 -167 -3 -5 2 -5 9 -1 8 4 -4 -11 -25 -33 -101 -105 -269 -99 -376
14 -19 20 -29 33 -21 29 9 -5 12 -3 9 6 -3 8 -10 14 -15 14 -6 0 -15 4 -20 9
-5 5 -2 6 6 1 9 -5 12 -3 9 6 -3 8 -10 14 -15 14 -6 0 -15 4 -20 9 -5 5 -3 6
5 2 17 -10 15 -2 -7 42 -35 69 -64 184 -71 286 -7 100 -7 100 -8 26 -1 -41 5
-106 13 -144 18 -83 13 -99 -6 -24 -17 65 -17 263 -1 298 11 23 11 22 7 -15
l-5 -40 13 45 c8 25 19 55 25 67 17 31 15 40 -4 17 -14 -18 -15 -18 -4 4 7 13
14 21 17 18 8 -7 33 13 33 26 0 6 -7 5 -17 -2 -10 -7 2 6 26 29 75 71 177 86
273 43z m449 -250 c20 -106 -12 -343 -49 -366 -5 -3 3 28 16 67 38 113 40 266
5 376 -4 13 -3 13 5 2 6 -8 16 -44 23 -79z m-179 -542 c-116 -105 -234 -145
-412 -137 -110 4 -218 30 -235 56 -2 5 23 -3 58 -17 179 -73 437 -28 583 103
27 24 51 44 54 44 3 0 -19 -22 -48 -49z"/>
<path d="M8465 2568 c-2 -7 -9 -71 -15 -143 -6 -71 -14 -154 -17 -182 -5 -45
-3 -53 11 -53 9 0 16 4 16 8 0 19 30 329 35 355 5 28 -21 41 -30 15z"/>
<path d="M8432 2435 c-7 -77 -16 -162 -19 -190 -3 -27 -3 -48 0 -45 8 7 39
324 35 353 -2 12 -9 -41 -16 -118z"/>
<path d="M8505 2558 c-8 -26 -27 -289 -21 -295 3 -4 6 9 7 28 0 19 6 89 12
157 12 114 12 140 2 110z"/>
<path d="M8309 2046 c92 -99 279 -104 361 -10 l25 29 -30 -27 c-91 -82 -225
-82 -333 -1 -37 28 -42 30 -23 9z"/>
<path d="M8607 2909 c29 -5 75 -17 102 -28 28 -10 49 -15 46 -10 -9 13 -134
49 -169 48 -22 -1 -17 -4 21 -10z"/>
<path d="M10635 2892 c-58 -22 -85 -40 -157 -111 -78 -75 -111 -116 -75 -95 8
5 7 2 -2 -9 -8 -10 -16 -15 -19 -12 -7 6 -32 -15 -32 -27 0 -5 5 -6 12 -2 7 5
8 3 3 -5 -19 -31 -23 13 -12 116 7 62 10 110 6 107 -4 -2 -10 0 -14 6 -3 6
-50 10 -110 10 l-103 0 -6 -47 c-4 -27 -24 -226 -46 -443 -22 -217 -42 -416
-46 -442 l-6 -48 111 0 c102 0 111 2 111 19 0 116 59 551 75 551 2 0 0 -12 -5
-26 -6 -14 -12 -58 -15 -97 l-4 -72 10 74 c9 64 20 103 54 185 7 15 5 17 -6
11 -8 -5 -11 -5 -6 1 5 5 14 9 19 9 6 0 13 6 16 14 3 9 0 11 -9 6 -8 -5 -11
-4 -6 1 5 5 14 9 20 9 5 0 12 6 15 14 3 9 0 11 -9 5 -12 -7 -12 -5 0 9 16 20
26 23 15 5 -4 -7 17 12 47 43 30 30 65 63 79 72 21 15 21 16 3 7 -41 -19 -24
-1 18 21 33 16 46 19 63 10 21 -11 21 -11 -1 -5 -13 3 -31 1 -40 -5 -15 -8
-13 -10 12 -8 26 2 30 -2 33 -26 2 -15 8 -25 13 -22 5 4 9 4 9 1 0 -11 -150
-106 -162 -104 -7 2 -13 -4 -13 -12 0 -8 7 -15 15 -15 8 -1 14 -6 12 -13 -1
-9 6 -8 28 3 16 9 30 18 30 21 0 2 -9 0 -19 -6 -11 -5 -23 -10 -28 -10 -10 0
283 168 323 185 33 13 42 38 46 114 1 32 2 31 8 -14 l8 -50 -2 50 -1 50 -89 3
c-133 4 -214 -28 -321 -127 l-80 -74 80 79 c99 99 161 126 305 135 l95 5 -90
1 c-75 1 -102 -3 -160 -25z m-290 -124 c-7 -89 -18 -152 -30 -182 -6 -15 -5
-17 5 -11 9 6 11 4 5 -4 -13 -22 -28 4 -16 27 6 11 16 72 23 136 13 132 24
159 13 34z"/>
<path d="M13461 2904 c-78 -21 -161 -68 -231 -131 -54 -49 -86 -96 -42 -62 14
11 13 10 -2 -9 -20 -23 -32 -30 -20 -10 4 6 3 8 -4 5 -55 -35 -115 -224 -115
-362 0 -114 31 -240 60 -240 6 0 15 -4 20 -9 5 -5 2 -6 -6 -1 -9 5 -12 3 -9
-6 3 -8 10 -14 16 -14 5 0 14 -4 19 -9 5 -5 3 -6 -4 -2 -29 16 -10 -14 35 -56
198 -186 530 -175 747 24 58 53 93 102 48 67 -16 -13 -17 -12 -5 3 8 10 19 16
24 15 6 -1 13 4 16 12 3 9 0 11 -8 6 -9 -5 -11 -4 -6 4 4 6 12 9 17 6 14 -9
66 110 85 193 27 123 -3 364 -44 355 -6 -2 -9 3 -6 10 3 8 -5 25 -16 38 -12
13 -18 17 -14 9 5 -10 0 -9 -14 4 -25 21 -31 36 -7 16 24 -20 17 4 -8 28 -25
24 -43 29 -31 10 4 -6 -11 3 -33 20 -146 118 -437 116 -616 -5 -32 -21 -44
-27 -32 -14 31 36 156 91 236 106 45 8 60 13 39 13 -19 1 -59 -6 -89 -14z
m161 -84 c29 -11 71 -36 93 -56 l40 -35 -49 35 c-108 79 -236 83 -321 11 l-30
-26 41 26 c100 63 224 53 308 -25 24 -22 45 -37 48 -35 3 3 11 -2 19 -12 12
-14 12 -15 0 -9 -9 6 -12 4 -9 -5 3 -8 10 -14 16 -14 5 0 14 -4 19 -9 5 -5 3
-6 -4 -2 -18 10 -16 1 9 -47 12 -23 32 -76 44 -117 13 -41 23 -68 23 -60 1 8
-3 30 -8 48 -6 18 -6 30 -2 27 8 -5 25 -90 34 -170 3 -22 2 -62 -3 -90 l-7
-50 -3 45 c-2 44 -3 44 -11 -17 -6 -52 -18 -86 -57 -167 -3 -5 2 -5 9 -1 8 4
-1 -7 -18 -26 -18 -19 -41 -35 -50 -36 -10 -1 -43 -9 -73 -17 -82 -24 -162 -4
-241 61 l-34 27 24 -27 c64 -71 196 -100 286 -63 31 12 36 13 21 1 -78 -60
-235 -28 -321 66 -16 17 -24 29 -16 24 9 -5 12 -3 9 6 -3 8 -10 14 -15 14 -6
0 -15 4 -20 9 -5 5 -2 6 6 1 9 -5 12 -3 9 6 -3 8 -10 14 -15 14 -6 0 -15 4
-20 9 -5 6 -2 6 6 1 10 -6 13 -4 8 6 -88 203 -110 373 -65 494 9 22 19 49 23
60 l8 20 -17 -20 c-17 -20 -17 -20 -6 3 7 13 14 21 17 18 8 -7 33 13 33 26 0
6 -7 5 -17 -2 -10 -7 2 6 26 29 72 68 161 86 253 51z m469 -258 c20 -106 -12
-343 -49 -366 -5 -3 3 28 16 67 38 113 40 266 5 376 -4 13 -3 13 5 2 6 -8 16
-44 23 -79z m-1003 -52 c-21 -69 -30 -219 -16 -295 7 -35 6 -37 -4 -15 -28 62
6 410 37 378 2 -2 -5 -33 -17 -68z m201 -189 c7 -23 10 -45 8 -47 -11 -11 -30
100 -32 191 l-3 100 8 -100 c4 -55 13 -120 19 -144z m623 -301 c-116 -105
-234 -145 -412 -137 -110 4 -218 30 -235 56 -2 5 23 -3 58 -17 179 -73 437
-28 583 103 27 24 51 44 54 44 3 0 -19 -22 -48 -49z"/>
<path d="M13585 2568 c-2 -7 -9 -71 -15 -143 -6 -71 -14 -154 -17 -182 -5 -45
-3 -53 11 -53 9 0 16 6 16 14 0 17 28 300 34 344 5 32 -19 49 -29 20z"/>
<path d="M13625 2558 c-2 -7 -8 -71 -14 -143 -7 -71 -14 -150 -18 -175 -3 -25
-3 -42 1 -39 7 6 45 369 39 369 -2 0 -5 -6 -8 -12z"/>
<path d="M13546 2380 c-4 -47 -10 -107 -13 -135 -3 -27 -3 -48 0 -45 8 8 30
235 25 252 -3 7 -8 -25 -12 -72z"/>
<path d="M13727 2909 c29 -5 75 -17 102 -28 28 -10 49 -15 46 -10 -9 13 -134
49 -169 48 -22 -1 -17 -4 21 -10z"/>
<path d="M15755 2892 c-58 -22 -85 -40 -157 -111 -78 -75 -111 -116 -75 -95 8
5 7 2 -2 -9 -8 -10 -16 -15 -19 -12 -7 6 -32 -15 -32 -27 0 -5 5 -6 12 -2 7 5
8 3 3 -5 -18 -30 -23 11 -13 106 15 134 15 133 -113 133 -58 0 -100 -4 -104
-11 -4 -5 -27 -202 -50 -437 -24 -235 -47 -451 -50 -479 l-6 -53 110 0 c102 0
111 2 111 19 0 114 59 551 75 551 2 0 0 -12 -5 -26 -6 -14 -10 -35 -9 -47 0
-12 7 2 15 31 7 29 21 66 29 82 18 35 19 43 3 34 -8 -4 -10 -3 -5 2 5 5 14 9
19 9 6 0 13 6 16 14 3 9 0 11 -9 6 -8 -5 -11 -4 -6 1 5 5 14 9 20 9 5 0 12 6
15 14 3 9 0 11 -9 5 -12 -7 -12 -5 0 9 16 20 26 23 15 5 -4 -7 17 12 47 43 30
30 65 63 79 72 21 15 21 16 3 7 -41 -19 -24 -1 18 21 33 16 46 19 63 10 21
-11 21 -11 -1 -5 -13 3 -31 1 -40 -5 -15 -8 -13 -10 12 -8 26 2 30 -2 33 -26
2 -15 8 -25 13 -22 5 4 9 4 9 1 0 -7 -147 -106 -157 -106 -4 0 26 23 67 50 41
27 71 50 67 50 -43 0 -178 -124 -136 -125 8 -1 13 -6 11 -13 -1 -9 6 -8 28 3
16 9 30 18 30 21 0 2 -9 0 -19 -6 -85 -45 -6 7 114 76 146 83 215 118 215 108
0 -3 -20 -13 -45 -24 -25 -11 -45 -21 -45 -24 0 -7 72 23 84 35 6 5 12 43 14
84 l4 75 -84 0 c-128 0 -210 -34 -313 -129 l-80 -74 80 79 c99 99 161 126 305
135 l95 5 -90 1 c-75 1 -102 -3 -160 -25z m-290 -124 c-7 -89 -18 -152 -30
-182 -6 -15 -5 -17 5 -11 9 6 11 4 5 -4 -13 -22 -28 4 -16 27 6 11 16 72 23
136 13 132 24 159 13 34z"/>
<path d="M4163 2883 c71 -2 183 -2 250 0 67 1 10 3 -128 3 -137 0 -192 -2
-122 -3z"/>
<path d="M4748 2883 c28 -2 76 -2 105 0 28 2 5 3 -53 3 -58 0 -81 -1 -52 -3z"/>
<path d="M5098 2883 c28 -2 76 -2 105 0 28 2 5 3 -53 3 -58 0 -81 -1 -52 -3z"/>
<path d="M9253 2883 c71 -2 183 -2 250 0 67 1 10 3 -128 3 -137 0 -192 -2
-122 -3z"/>
<path d="M9838 2883 c28 -2 76 -2 105 0 28 2 5 3 -53 3 -58 0 -81 -1 -52 -3z"/>
<path d="M10188 2883 c28 -2 76 -2 105 0 28 2 5 3 -53 3 -58 0 -81 -1 -52 -3z"/>
<path d="M14373 2883 c71 -2 183 -2 250 0 67 1 10 3 -128 3 -137 0 -192 -2
-122 -3z"/>
<path d="M14958 2883 c28 -2 76 -2 105 0 28 2 5 3 -53 3 -58 0 -81 -1 -52 -3z"/>
<path d="M15308 2883 c28 -2 76 -2 105 0 28 2 5 3 -53 3 -58 0 -81 -1 -52 -3z"/>
<path d="M4035 2858 c-11 -32 -86 -827 -81 -858 4 -29 3 -32 -6 -16 -8 15 -8
56 2 158 6 77 10 141 7 144 -2 3 -10 -60 -17 -138 -12 -142 -5 -209 19 -193 5
3 13 0 17 -6 4 -8 3 -9 -4 -5 -17 10 -15 -9 1 -23 8 -6 18 -7 22 -3 5 4 5 2 2
-5 -8 -13 43 -48 85 -58 26 -7 183 23 173 33 -2 2 -36 -3 -75 -13 -76 -19
-134 -12 -159 19 -8 10 1 8 26 -5 47 -24 128 -14 307 38 11 3 63 46 115 96 94
89 95 90 21 13 -92 -95 -118 -115 -178 -132 -46 -14 -47 -14 -7 -8 55 7 106
43 203 142 74 77 109 125 65 91 -14 -11 -14 -9 1 9 46 53 51 2 21 -210 l-5
-38 110 0 c60 0 110 3 110 8 0 15 90 897 95 935 l5 37 -104 0 c-127 0 -111 31
-141 -264 -14 -135 -30 -256 -35 -269 -6 -16 -8 -8 -4 28 l4 50 -13 -56 c-7
-31 -20 -68 -30 -82 -20 -31 -22 -41 -4 -31 7 4 9 3 4 -2 -5 -5 -12 -9 -15 -9
-4 -1 -41 -35 -83 -77 -94 -93 -184 -142 -252 -137 -25 2 -43 1 -40 -3 16 -27
134 4 206 54 21 15 27 16 19 5 -25 -30 -132 -77 -177 -77 -57 0 -62 9 -54 88
5 37 8 83 7 102 0 19 -6 -8 -13 -60 -23 -179 -15 -55 16 260 18 181 37 319 43
325 32 28 58 87 29 64 -15 -11 -14 -10 1 9 20 23 32 30 20 11 -4 -7 -1 -10 7
-7 8 3 14 11 14 19 0 11 23 15 113 17 104 2 112 4 112 22 0 25 -497 32 -505 8z
m535 -641 c0 -1 -30 -32 -67 -67 l-68 -65 65 68 c60 62 70 72 70 64z"/>
<path d="M5802 2832 c-3 -60 -15 -79 -72 -106 -69 -33 -321 -179 -316 -183 1
-2 54 27 117 63 63 37 144 82 182 101 81 41 100 66 94 125 l-4 43 -1 -43z"/>
<path d="M9126 2862 c-9 -15 -87 -805 -84 -849 2 -23 0 -39 -4 -35 -4 4 -9 36
-11 72 l-3 65 -2 -65 c-3 -95 62 -179 152 -195 61 -11 270 48 323 91 82 67
228 229 157 174 -18 -14 -18 -14 0 8 27 32 35 16 26 -53 -5 -33 -8 -78 -8
-100 0 -22 6 6 13 63 7 57 18 109 24 115 10 9 10 6 3 -13 -5 -14 -12 -59 -16
-100 -4 -41 -10 -92 -13 -112 l-6 -38 112 0 c61 0 111 3 111 8 -3 54 96 946
101 907 l6 -50 1 46 c3 64 -6 69 -119 69 -120 0 -106 27 -136 -268 -14 -136
-29 -251 -33 -255 -4 -5 -6 2 -3 15 8 49 52 493 48 496 -5 5 -13 -59 -36 -288
-18 -184 -25 -223 -47 -270 -36 -76 -36 -78 -12 -50 l22 25 -14 -25 c-9 -14
-19 -25 -24 -26 -5 0 -41 -32 -79 -70 -89 -87 -182 -137 -246 -132 l-44 3 -6
60 -6 60 -3 -50 c-1 -27 -5 -41 -7 -30 -2 11 10 157 27 325 29 282 40 362 40
280 0 -47 6 -34 13 28 5 40 3 51 -6 46 -7 -4 -8 -3 -4 2 5 5 12 9 17 9 4 0 17
11 28 25 19 23 28 25 134 31 l113 5 -107 2 c-101 2 -108 1 -140 -24 l-33 -26
33 31 c32 31 34 31 136 31 101 0 116 5 116 36 0 8 -499 4 -504 -4z m453 -725
c-114 -109 -241 -164 -297 -128 -8 5 8 6 38 3 69 -6 158 39 254 130 39 37 73
67 76 67 3 0 -29 -32 -71 -72z m-4 -107 c-152 -153 -378 -212 -480 -125 l-30
26 40 -25 c62 -39 88 -40 222 -8 133 32 151 43 253 146 30 31 57 56 59 56 3 0
-26 -32 -64 -70z"/>
<path d="M14246 2861 c-17 -27 -90 -851 -79 -882 10 -26 10 -30 0 -20 -6 6
-15 44 -18 84 l-6 72 -1 -65 c-3 -96 62 -179 152 -195 61 -11 270 48 323 91
82 67 228 229 157 174 -18 -14 -18 -14 0 8 31 35 34 15 20 -103 -15 -125 -16
-140 -9 -134 2 3 11 60 19 128 8 68 19 128 26 134 8 9 9 6 2 -13 -5 -14 -12
-59 -16 -100 -4 -41 -10 -92 -13 -112 l-6 -38 112 0 c61 0 111 3 111 8 -3 54
96 946 101 907 l6 -50 1 46 c3 64 -6 69 -119 69 -120 0 -106 27 -136 -268 -14
-136 -30 -251 -36 -257 -6 -7 -8 -7 -5 0 8 15 41 352 36 366 -2 7 -12 -70 -22
-172 -25 -261 -88 -374 -266 -477 -30 -17 -50 -32 -45 -32 18 0 118 70 176
123 30 29 23 21 -16 -18 -108 -106 -237 -162 -293 -126 -8 5 7 6 36 3 27 -2
57 0 66 5 10 6 -3 8 -42 8 l-57 0 -6 60 -6 60 -3 -50 c-1 -27 -5 -40 -7 -28
-5 24 55 624 63 632 2 2 4 -11 4 -29 0 -47 6 -34 13 28 5 40 3 51 -6 46 -7 -4
-8 -3 -4 2 5 5 12 9 17 9 4 0 17 11 28 25 19 23 28 25 134 31 l113 5 -107 2
c-101 2 -108 1 -140 -24 l-33 -26 33 31 c32 31 33 31 137 31 67 0 105 4 105
11 0 5 4 8 9 4 5 -3 13 0 17 6 4 8 3 9 -4 5 -7 -4 -12 -2 -12 3 0 14 -496 15
-504 2z m449 -831 c-152 -153 -378 -212 -480 -125 l-30 26 40 -25 c62 -39 88
-40 222 -8 133 32 151 43 253 146 30 31 57 56 59 56 3 0 -26 -32 -64 -70z"/>
<path d="M4005 2780 c-4 -45 -5 -83 -2 -86 2 -3 8 32 11 77 4 44 5 83 3 85 -3
3 -8 -31 -12 -76z"/>
<path d="M5020 2856 c0 -4 -11 -118 -26 -253 -14 -135 -24 -255 -22 -267 2
-12 15 100 31 248 15 148 25 272 22 274 -3 3 -5 2 -5 -2z"/>
<path d="M9097 2815 c-3 -27 -9 -86 -11 -130 -4 -67 -3 -61 9 35 8 63 13 122
12 130 -2 8 -6 -7 -10 -35z"/>
<path d="M10106 2829 c-3 -17 -5 -48 -5 -68 1 -24 4 -15 10 29 9 68 6 92 -5
39z"/>
<path d="M14217 2815 c-3 -27 -9 -86 -11 -130 -4 -67 -3 -61 9 35 8 63 13 122
12 130 -2 8 -6 -7 -10 -35z"/>
<path d="M15226 2829 c-3 -17 -5 -48 -5 -68 1 -24 4 -15 10 29 9 68 6 92 -5
39z"/>
<path d="M2050 2780 c-52 -27 -90 -49 -85 -49 6 0 53 22 105 49 52 27 91 49
85 49 -5 0 -53 -22 -105 -49z"/>
<path d="M4895 2645 c-9 -102 -15 -188 -13 -190 3 -3 13 78 23 180 9 102 15
188 13 190 -3 3 -13 -78 -23 -180z"/>
<path d="M7154 2771 c-65 -33 -116 -60 -112 -60 7 -1 228 106 237 114 12 12
-14 1 -125 -54z"/>
<path d="M12274 2771 c-65 -33 -116 -60 -112 -60 7 -1 228 106 237 114 12 12
-14 1 -125 -54z"/>
<path d="M4373 2813 c32 -2 81 -2 110 0 29 2 3 3 -58 3 -60 0 -84 -1 -52 -3z"/>
<path d="M4645 2615 c-9 -102 -15 -188 -13 -190 3 -3 13 78 23 180 9 102 15
188 13 190 -3 3 -13 -78 -23 -180z"/>
<path d="M9975 2565 c-9 -102 -15 -188 -13 -190 3 -3 13 78 23 180 9 102 15
188 13 190 -3 3 -13 -78 -23 -180z"/>
<path d="M1972 2683 c-73 -31 -131 -58 -129 -60 4 -3 267 104 276 112 11 12
-23 0 -147 -52z"/>
<path d="M1858 2689 c-43 -21 -78 -41 -78 -44 0 -5 159 72 169 81 14 13 -25
-2 -91 -37z"/>
<path d="M4230 2575 c-7 -75 -10 -138 -8 -141 3 -2 11 57 18 131 7 75 10 138
8 141 -3 2 -11 -57 -18 -131z"/>
<path d="M6950 2675 c-36 -19 -60 -34 -55 -34 6 0 39 15 75 34 36 19 61 34 55
34 -5 0 -39 -15 -75 -34z"/>
<path d="M6997 2643 c-86 -36 -156 -68 -154 -70 4 -3 317 123 325 132 12 12
-23 -1 -171 -62z"/>
<path d="M12070 2675 c-36 -19 -60 -34 -55 -34 6 0 39 15 75 34 36 19 61 34
55 34 -5 0 -39 -15 -75 -34z"/>
<path d="M12117 2643 c-86 -36 -156 -68 -154 -70 4 -3 317 123 325 132 12 12
-23 -1 -171 -62z"/>
<path d="M10566 2655 c-75 -52 -80 -63 -6 -15 77 51 76 50 64 49 -5 0 -31 -15
-58 -34z"/>
<path d="M15085 2465 c-9 -102 -15 -188 -13 -190 3 -3 13 78 23 180 9 102 15
188 13 190 -3 3 -13 -78 -23 -180z"/>
<path d="M9305 2445 c-9 -102 -15 -188 -13 -190 3 -3 13 78 23 180 9 102 15
188 13 190 -3 3 -13 -78 -23 -180z"/>
<path d="M14425 2445 c-9 -102 -15 -188 -13 -190 3 -3 13 78 23 180 9 102 15
188 13 190 -3 3 -13 -78 -23 -180z"/>
<path d="M3970 2445 c-7 -75 -10 -138 -8 -141 3 -2 11 57 18 131 7 75 10 138
8 141 -3 2 -11 -57 -18 -131z"/>
<path d="M10055 2335 c-9 -102 -15 -188 -13 -190 3 -3 13 78 23 180 9 102 15
188 13 190 -3 3 -13 -78 -23 -180z"/>
<path d="M15171 2291 c-13 -126 -21 -235 -19 -241 2 -7 14 94 27 224 13 130
22 239 19 241 -2 3 -15 -98 -27 -224z"/>
<path d="M9045 2315 c-9 -102 -15 -188 -13 -190 3 -3 13 78 23 180 9 102 15
188 13 190 -3 3 -13 -78 -23 -180z"/>
<path d="M14165 2315 c-9 -102 -15 -188 -13 -190 3 -3 13 78 23 180 9 102 15
188 13 190 -3 3 -13 -78 -23 -180z"/>
<path d="M4860 2305 c-7 -75 -10 -138 -8 -141 3 -2 11 57 18 131 7 75 10 138
8 141 -3 2 -11 -57 -18 -131z"/>
<path d="M4206 2330 c-4 -51 -6 -94 -3 -96 3 -3 8 36 12 86 4 50 5 93 2 96 -2
3 -8 -36 -11 -86z"/>
<path d="M15416 2270 c-4 -51 -6 -94 -3 -96 3 -3 8 36 12 86 4 50 5 93 2 96
-2 3 -8 -36 -11 -86z"/>
<path d="M5195 2155 c-9 -102 -15 -188 -13 -190 3 -3 13 78 23 180 9 102 15
188 13 190 -3 3 -13 -78 -23 -180z"/>
<path d="M9926 2082 c-10 -101 -15 -186 -12 -189 3 -4 6 3 6 14 0 11 7 87 16
168 8 81 14 157 12 169 -2 12 -12 -61 -22 -162z"/>
<path d="M15046 2082 c-10 -101 -15 -186 -12 -189 3 -4 6 3 6 14 0 11 7 87 16
168 8 81 14 157 12 169 -2 12 -12 -61 -22 -162z"/>
<path d="M4941 2078 c-6 -73 -14 -146 -16 -163 -4 -23 -3 -25 3 -10 10 23 37
294 30 301 -3 2 -10 -56 -17 -128z"/>
<path d="M10271 2029 c-7 -72 -11 -133 -8 -135 2 -3 10 54 17 126 7 72 10 133
8 135 -3 3 -10 -54 -17 -126z"/>
<path d="M15391 2029 c-7 -72 -11 -133 -8 -135 2 -3 10 54 17 126 7 72 10 133
8 135 -3 3 -10 -54 -17 -126z"/>
<path d="M4593 2144 c6 -10 -2 -101 -18 -219 -3 -21 -3 -36 1 -33 13 14 34
242 22 253 -8 7 -9 7 -5 -1z"/>
<path d="M4836 2060 c-4 -51 -6 -94 -3 -96 3 -3 8 36 12 86 4 50 5 93 2 96 -2
3 -8 -36 -11 -86z"/>
<path d="M10026 2053 c-3 -43 -8 -98 -11 -123 -4 -41 -4 -42 4 -11 11 40 25
211 18 211 -2 0 -7 -35 -11 -77z"/>
<path d="M15142 2000 c-1 -19 -4 -53 -7 -75 l-5 -40 11 40 c5 22 8 56 6 75
l-4 35 -1 -35z"/>
<path d="M3192 1878 c13 -3 70 -6 128 -6 58 0 115 3 128 6 13 4 -45 7 -128 7
-83 0 -141 -3 -128 -7z"/>
<path d="M4653 1873 c32 -2 81 -2 110 0 29 2 3 3 -58 3 -60 0 -84 -1 -52 -3z"/>
<path d="M5003 1873 c32 -2 81 -2 110 0 29 2 3 3 -58 3 -60 0 -84 -1 -52 -3z"/>
<path d="M9738 1873 c28 -2 76 -2 105 0 28 2 5 3 -53 3 -58 0 -81 -1 -52 -3z"/>
<path d="M10088 1873 c28 -2 76 -2 105 0 28 2 5 3 -53 3 -58 0 -81 -1 -52 -3z"/>
<path d="M14858 1873 c28 -2 76 -2 105 0 28 2 5 3 -53 3 -58 0 -81 -1 -52 -3z"/>
<path d="M15208 1873 c28 -2 76 -2 105 0 28 2 5 3 -53 3 -58 0 -81 -1 -52 -3z"/>
</g>
</svg>
